<svg version="1.1" id="Layer_1" xmlns="http://www.w3.org/2000/svg" x="0" y="0" viewBox="0 0 800 172.7" xml:space="preserve"><style>.st1{fill:#125886}</style><path d="M465.4 140c16.1-14 28-32.3 34.2-52.8 7.3-24.3 4.8-44.8-7.4-61.6S461.1.3 435.6 0c-16.4 0-32.6 3.7-47.4 10.9-15.8 7.5-29.9 18.1-41.5 31.2-1.8 2-3.4 4-5 6h19.6c9.1-9.6 19.9-17.5 31.9-23.2 11.9-5.9 25-9 38.3-9 11.8-.1 23.4 3.4 33.2 10 9.1 6 15.7 15.1 18.8 25.6 3.1 11.7 2.7 24-1.2 35.4-3.9 13.2-10.8 25.4-20 35.6-5.4 6-11.4 11.3-18 15.9l-21-11.8-6.7-1.6h-47.7l-6.2 8.5h-40.8l1 2.3c1.7 3.9 3.9 7.6 6.4 11.1 12.2 16.8 30.8 25.4 55.8 25.8 19.3.2 38.3-4.7 55-14.2l95.6-1 10.4-16.8-80.7-.7zm-75.9 16.4c-14.9.6-29.5-5.1-40-15.7h12.4l42.6.8 2.9.6v.3h1.3l1.2.3 14.4 6.7c-11 4.7-22.9 7-34.8 7z" fill="#f0b532"/><path class="st1" d="M94.1 29.2l-58.8 98.2h57.8l-12 20H0L70.8 29.2h23.3zM593.5 56.5l-41.2 68.9h-17l7.9-11.8c-8.1 8.4-19.3 13-30.9 12.8-16.2 0-19.7-7.8-10.3-23.5l27.7-46.3H547l-25.3 42.3c-3.5 5.9-5 10-4.4 11.7.5 1.7 3.5 2.8 8.9 2.8 11 0 20.4-6.4 28-19.1l22.5-37.7 16.8-.1zM606 83.8c2.6-5 6.2-9.4 10.5-12.8 4.4-2.2 9.3-3.2 14.3-2.9 6.6 0 10.4.8 11.4 2.4s0 5-3.3 10.6l-1.6 2.7H606zm11.4 28.2c-4.3 1.6-8.8 2.3-13.4 1.9-6.5 0-10.2-1.1-11.1-3.4-.8-2.3.9-6.8 5-13.6l1.8-3.1h48.7l3.1-5c7.9-13.1 11-22 9.3-26.5-1.7-4.5-8.9-6.8-21.8-6.8-10.8-.6-21.6 1.8-31.1 6.9-9.6 7.2-17.6 16.4-23.2 27.1-9.1 15.1-12.8 25-11.1 29.7 1.7 4.7 9.6 7 23.8 7 21.1 0 35.8-6.7 43.9-20l1.4-2.7h-17.3c-1.8 3.6-4.6 6.4-8 8.5zM730 75.5h-16.8c0-.6.4-1 .5-1.4 1.7-3.3 1.9-5.4.8-6.2-3.6-1.2-7.4-1.6-11.1-1.2-9 0-15 2.7-18.5 8.3-2.3 3.8-2.8 6.1-1.7 6.8 4.9 1.2 9.9 1.8 15 1.8 12 .6 19 2.2 21.2 4.7s.9 7.8-3.8 15.7c-4.1 7.5-10.3 13.6-17.9 17.5-9.3 3.7-19.4 5.4-29.5 5-12.3 0-20-1.5-22.5-4.4-2.5-3-1.8-8.4 3-16.4l.9-1.8h17.9c-.6.7-1.1 1.5-1.5 2.3-4.4 6.1-1.3 9.2 9.2 9.2 10.8 0 18-3.1 21.7-9.1s1.8-8.8-5-8.8c-15.4 0-24.8-1.4-28-4.2-3.2-2.8-2.2-8.6 3-17.4 3.7-6.9 9.4-12.4 16.3-16 9.1-3.2 18.7-4.6 28.3-4.2 11.9 0 19.2 1.4 21.8 4 2.5 2.7 1.7 8-3.3 15.8zM800 56.6l-7.5 12.6H765l-20.7 34.5c-3.9 6.4-3.2 9.6 1.7 9.6s10.6-3.9 15.3-11.6l1.8-2.8h14.5l-2.1 3.5c-1.9 3.2-3.6 5.9-5 8.2-7.3 10.5-18.6 15.8-33.9 15.8-15.3 0-19-6.8-10.8-20.3l22.1-36.8h-9.2l7.5-12.7h8.7l9.3-15.6h17.3l-9.3 15.6H800z"/><path class="st1" d="M120.7 83.6c2.6-5 6.2-9.4 10.6-12.8 4.4-2.2 9.3-3.2 14.2-2.9 6.6 0 10.4.8 11.4 2.5 1.1 1.6 0 5-3.4 10.6l-1.5 2.7-31.3-.1zm11.4 28.2c-4.3 1.6-8.9 2.3-13.4 2-6.6 0-10-1.1-11-3.4s.8-6.8 5-13.6l1.8-3h48.6l3.2-5c7.9-13.1 11-22 9.3-26.5-1.7-4.5-9-6.8-21.8-6.8-10.8-.6-21.6 1.8-31.2 6.9-9.7 7.2-17.6 16.4-23.2 27.1-9 15-12.7 25-11.1 29.7 1.7 4.7 9.6 7 23.8 7 21.1 0 35.8-6.7 43.9-20l1.5-2.7H140c-1.8 3.4-4.5 6.3-7.9 8.3zM213.2 105c-4.1 6.7-11.4 10-21.7 10-6.4 0-10-.8-11.3-2.2-1.3-1.4-.3-4.4 2.4-9 4.3-6.9 12.2-10.8 20.3-10 11.1.5 14.5 4 10.3 11.2zm7.9-38.3c6 0 9.6.9 10.4 2.7.9 1.8-.2 5.3-3.5 10.8l-6.7 11.2h-.3c.6-5.3-5-7.9-16.8-7.9-16.2-.8-31.5 7.5-39.6 21.6-8.5 14.2-4.2 21.4 13.2 21.4 10.7.5 21.2-3.3 29.2-10.4h.3l-6.4 9.5H218L245 80c5.7-9.6 7.4-16.1 5-19.5-2.5-3.4-10-5-23.1-5-9-.5-17.9.9-26.3 4.2-6.8 3.9-12.3 9.6-15.9 16.5h17.5c4-6.5 11.3-10.2 18.9-9.7v.2zM272.9 56.5h17.4l-6.9 9.6h.4c7-6.6 16.2-10.5 25.8-10.8 12.6 0 14.3 7.6 5 22.9l-2.8 5h-16l2.4-3.7c4.4-7.3 3.6-11-2.2-11-8.5 0-16 5.4-22.5 16.3l-24.3 40.7h-17.3l41-69zM333.5 56.5h16.9l-7.6 11.6h.4c7.9-8.1 18.7-12.6 30-12.6 17 0 21 7.6 11.9 22.9L357 125.3h-17l25-41.6 1.5-2.6 2.6-5c2.3-5-.4-7.8-8-7.8-11.3-.2-21.7 6-26.9 15.9l-24.5 40.9h-17.5l41.3-68.6z"/></svg>
